<?xml version="1.0" standalone="no"?><!DOCTYPE svg PUBLIC "-//W3C//DTD SVG 1.1//EN" "http://www.w3.org/Graphics/SVG/1.1/DTD/svg11.dtd"><svg t="1539328695010" class="icon" style="" viewBox="0 0 1024 1024" version="1.1" xmlns="http://www.w3.org/2000/svg" p-id="5616" xmlns:xlink="http://www.w3.org/1999/xlink" width="200" height="200"><defs><style type="text/css"></style></defs><path d="M888.709936 833.661766l-17.957924 42.953013c-8.296543 19.849041-27.724767 32.766378-49.149567 32.766378H202.933047c-21.529237 0-40.853024-12.917337-49.149567-32.766378l-17.957924-42.953013H888.709936z" fill="#E6E6E6" p-id="5617"></path><path d="M548.237349 222.658198c-4.410898 4.410898-9.451485 7.87675-14.702993 10.292096-6.721807 3.046059-13.967844 4.620794-21.21388 4.620794-13.022797 0-26.044571-4.936151-36.02131-14.91289-19.849041-19.849041-19.849041-52.089142 0-72.043643l36.02131-36.021309 36.02131 36.021309c19.743581 19.849041 19.743581 52.090166-0.104437 72.043643z" fill="#E54728" p-id="5618"></path><path d="M548.237349 222.658198c-4.410898 4.410898-9.451485 7.87675-14.702993 10.292096a48.416465 48.416465 0 0 1-14.702993-10.292096c-19.849041-19.849041-19.849041-52.089142 0-72.043643l14.702993-14.702993 14.702993 14.702993c19.848017 19.849041 19.848017 52.090166 0 72.043643z" fill="#F95428" p-id="5619"></path><path d="M455.189723 281.259251h114.156046v145.032332H455.189723z" fill="#F7B239" p-id="5620"></path><path d="M455.189723 281.259251h36.021309v145.032332h-36.021309z" fill="#E09B2D" p-id="5621"></path><path d="M840.610876 495.183707l-31.190619 29.195067c-18.588638 17.328235-47.468348 17.328235-66.056986 0-18.588638-17.328235-47.468348-17.328235-66.056985 0-18.588638 17.328235-47.468348 17.328235-66.056986 0-18.588638-17.328235-47.468348-17.328235-66.056986 0-9.241589 8.716336-21.109444 13.022797-32.976274 13.022797s-23.734686-4.305438-32.976275-13.022797c-9.347049-8.716336-21.10842-13.022797-32.976275-13.022798s-23.734686 4.305438-32.976274 13.022798c-9.347049 8.716336-21.10842 13.022797-32.976275 13.022797-11.866831 0-23.734686-4.305438-32.976274-13.022797-9.347049-8.716336-21.21388-13.022797-33.080711-13.022798-11.866831 0-23.734686 4.305438-32.976275 13.022798-18.588638 17.328235-47.468348 17.328235-66.056986 0l-31.190618-29.195067c8.191083-39.382725 43.058473-68.893148 84.751084-68.893148h487.079655c41.797047 0 76.664438 29.510423 84.75006 68.893148z" fill="#B27214" p-id="5622"></path><path d="M182.034524 765.819124h660.467468v67.947078h-660.467468zM182.034524 608.394708h660.467468v61.751548h-660.467468z" fill="#2BA5F7" p-id="5623"></path><path d="M182.034524 670.146256h660.467468v95.672868h-660.467468zM842.501992 512.931736v95.462972h-660.467468v-95.462972a88.12581 88.12581 0 0 1 1.785656-17.643592l31.190619 29.195066c18.588638 17.328235 47.468348 17.328235 66.056985 0 9.347049-8.716336 21.10842-13.022797 32.976275-13.022798 11.866831 0 23.734686 4.305438 33.080711 13.022798 9.241589 8.716336 21.10842 13.022797 32.976275 13.022797 11.866831 0 23.734686-4.305438 32.976274-13.022797 9.347049-8.716336 21.10842-13.022797 32.976275-13.022798 11.866831 0 23.734686 4.305438 32.976275 13.022798 9.347049 8.716336 21.10842 13.022797 32.976274 13.022797s23.734686-4.305438 32.976275-13.022797c18.588638-17.433695 47.468348-17.433695 66.056986 0 18.588638 17.328235 47.468348 17.328235 66.056985 0 18.588638-17.328235 47.468348-17.328235 66.056986 0 18.588638 17.328235 47.468348 17.328235 66.056985 0l31.190619-29.195066c1.470299 5.671301 2.101013 11.552498 2.101013 17.643592z" fill="#F7B239" p-id="5624"></path><path d="M297.55541 909.380133h-94.622363c-21.529237 0-40.853024-12.917337-49.149567-32.766378l-17.957924-42.953013h94.622362l17.957925 42.953013c8.192106 19.849041 27.621354 32.766378 49.149567 32.766378z" fill="#CCCCCC" p-id="5625"></path><path d="M401.630281 426.290559c-41.798071 0-76.664438 29.615883-84.751083 68.893148-1.050506 5.250484-1.680196 10.607452-1.785656 16.173293h-0.945047c-11.866831 0-23.734686 4.305438-32.976274 13.022797-18.588638 17.328235-47.468348 17.328235-66.056986 0L183.924616 495.184731c8.191083-39.382725 43.058473-68.893148 84.751084-68.893148l132.954581-0.001024z" fill="#995C0D" p-id="5626"></path><path d="M182.034524 765.819124h133.060041v67.947078H182.034524zM182.034524 608.394708h133.060041v61.751548H182.034524z" fill="#2197D8" p-id="5627"></path><path d="M182.034524 670.146256h133.060041v95.672868H182.034524zM314.044059 511.357h0.945046v97.038732H182.034524v-95.462972a88.12581 88.12581 0 0 1 1.785656-17.643592l31.190619 29.195066c18.588638 17.328235 47.468348 17.328235 66.056985 0 9.347049-8.821796 21.10842-13.127234 32.976275-13.127234z" fill="#E09B2D" p-id="5628"></path><path d="M315.094565 511.357z" fill="#F7B239" p-id="5629"></path><path d="M523.872974 396.255907c-8.506439 0-15.438143-6.931704-15.438143-15.438143v-56.080247c0-8.506439 6.931704-15.438143 15.438143-15.438143s15.438143 6.931704 15.438143 15.438143v56.080247a15.397188 15.397188 0 0 1-15.438143 15.438143z" fill="#FFFFFF" p-id="5630"></path><path d="M512.21604 253.009231c17.748028 0 34.341114-6.931704 46.944118-19.428224 25.834675-25.834675 25.834675-67.947078 0-93.887213L523.137825 103.671461c-5.985634-5.985634-15.752476-5.985634-21.84357 0l-36.02131 36.021309c-25.834675 25.834675-25.834675 67.947078 0 93.887213 12.600957 12.497544 29.194042 19.429248 46.943095 19.429248z m-25.100549-91.471867l25.099525-25.099525 25.099525 25.099525c13.862383 13.862383 13.862383 36.336666 0 50.19905-6.720783 6.720783-15.648039 10.396532-25.099525 10.396531s-18.378742-3.675748-25.099525-10.396531c-13.862383-13.862383-13.862383-36.442126 0-50.19905zM944.265954 818.223623H857.834675v-305.291887c0-56.290144-45.788152-102.079319-102.07932-102.079319H584.783912v-129.593166c0-8.506439-6.931704-15.438143-15.438143-15.438143H455.085286c-8.506439 0-15.438143 6.931704-15.438142 15.438143v129.594189H268.57024c-56.290144 0-102.079319 45.788152-102.079319 102.07932v305.291887H80.166125c-8.506439 0-15.438143 6.931704-15.438143 15.438143s6.931704 15.438143 15.438143 15.438143h45.262899l27.724767 66.266882c2.415345 5.775737 7.981186 9.451485 14.282176 9.451485h689.662534c6.196554 0 11.866831-3.780185 14.282176-9.451485l27.724767-66.266882h45.262899c8.506439 0 15.438143-6.931704 15.438143-15.438143s-7.034092-15.439167-15.540532-15.439167z m-739.757147-282.607708c24.364375 22.78964 62.591134 22.78964 87.060969 0l0.10546-0.10546c12.601981-11.762395 32.345561-11.762395 44.948566 0 24.469835 22.78964 62.696594 22.78964 87.166429 0 12.601981-11.762395 32.241125-11.762395 44.843106-0.10546l0.10546 0.10546c24.469835 22.78964 62.696594 22.78964 87.16643 0 12.601981-11.762395 32.345561-11.762395 44.948565 0 24.469835 22.78964 62.696594 22.78964 87.06097 0l0.10546-0.10546c12.601981-11.656934 32.345561-11.656934 44.948565 0.10546 12.182188 11.447038 27.830227 17.118339 43.582703 17.118339 15.648039 0 31.296079-5.671301 43.582703-17.118339l7.03614-6.616347v63.851536H197.472667v-63.851536l7.03614 6.721807z m622.555042 119.092198H197.472667v-30.876286h629.591182v30.876286z m-629.591182 30.876286h629.591182v64.796582H197.472667v-64.796582z m273.049738-388.887005h83.385221v114.156046h-83.280784V296.697394h-0.104437zM268.57024 441.728702h487.184092c31.296079 0 57.970339 20.37327 67.422848 48.518854l-24.469835 22.78964c-12.601981 11.762395-32.345561 11.762395-44.948566 0-24.469835-22.78964-62.696594-22.78964-87.060969 0l-0.10546 0.10546c-12.601981 11.656934-32.345561 11.656934-44.843106-0.10546-24.469835-22.78964-62.696594-22.78964-87.166429 0-12.601981 11.762395-32.241125 11.762395-44.843106 0.10546l-0.10546-0.10546c-24.469835-22.78964-62.696594-22.78964-87.060969 0-12.601981 11.762395-32.345561 11.762395-44.948566 0-24.364375-22.78964-62.591134-22.78964-87.060969-0.10546l-0.10546 0.10546c-12.601981 11.762395-32.345561 11.762395-44.948566 0l-24.469835-22.78964c9.560017-28.14456 36.235302-48.518854 67.530356-48.518854z m-71.097573 339.527541h629.591182v37.071816H197.472667v-37.071816zM846.80743 893.94199H177.623626l-18.798534-44.843105h706.675412l-18.693074 44.843105z" fill="#333333" p-id="5631"></path><path d="M795.138081 758.467628c-8.506439 0-15.438143-6.931704-15.438143-15.438143v-230.097749c0-1.680196-0.209896-3.360392-0.525254-4.936152-2.310909-11.027245-12.076727-18.903995-23.313868-18.903994-8.506439 0-15.438143-6.931704-15.438143-15.438143s6.931704-15.438143 15.438143-15.438143c25.834675 0 48.308957 18.273281 53.559441 43.478266a55.837586 55.837586 0 0 1 1.154943 11.237142v230.097749c0.001024 8.507463-6.93068 15.439167-15.437119 15.439167z" fill="#FFFFFF" p-id="5632"></path><path d="M795.347977 792.703281m-15.438143 0a15.438143 15.438143 0 1 0 30.876286 0 15.438143 15.438143 0 1 0-30.876286 0Z" fill="#FFFFFF" p-id="5633"></path><path d="M817.297007 871.363271m-15.438143 0a15.438143 15.438143 0 1 0 30.876286 0 15.438143 15.438143 0 1 0-30.876286 0Z" fill="#FFFFFF" p-id="5634"></path></svg>